<mxfile host="app.diagrams.net" modified="2022-01-16T09:38:18.911Z" agent="5.0 (Windows)" etag="ZjH8mMDiOQzbv6-VKk_s" version="16.2.7" type="github">
  <diagram id="Lq96TW4K5-KBJD4N3H_r" name="Page-1">
    <mxGraphModel dx="1422" dy="772" grid="1" gridSize="10" guides="1" tooltips="1" connect="1" arrows="1" fold="1" page="1" pageScale="1" pageWidth="827" pageHeight="1169" math="0" shadow="0">
      <root>
        <mxCell id="0" />
        <mxCell id="1" parent="0" />
        <mxCell id="rIavTHr592OUhHLJrR3U-1" value="" style="rounded=0;whiteSpace=wrap;html=1;" parent="1" vertex="1">
          <mxGeometry x="200" y="120" width="600" height="80" as="geometry" />
        </mxCell>
        <mxCell id="rIavTHr592OUhHLJrR3U-2" value="" style="rounded=0;whiteSpace=wrap;html=1;" parent="1" vertex="1">
          <mxGeometry x="200" y="240" width="600" height="80" as="geometry" />
        </mxCell>
        <mxCell id="rIavTHr592OUhHLJrR3U-3" value="" style="rounded=0;whiteSpace=wrap;html=1;" parent="1" vertex="1">
          <mxGeometry x="200" y="360" width="600" height="80" as="geometry" />
        </mxCell>
        <mxCell id="A1HN-KzVpsZoMAgiLz0k-1" value="&lt;div style=&quot;font-size: 36px&quot;&gt;&lt;font style=&quot;font-size: 36px&quot;&gt;Authentifizierungsservice&lt;/font&gt;&lt;/div&gt;" style="text;html=1;resizable=0;autosize=1;align=center;verticalAlign=middle;points=[];fillColor=none;strokeColor=none;rounded=0;" vertex="1" parent="1">
          <mxGeometry x="204" y="50" width="420" height="20" as="geometry" />
        </mxCell>
        <mxCell id="A1HN-KzVpsZoMAgiLz0k-2" value="" style="rounded=0;whiteSpace=wrap;html=1;" vertex="1" parent="1">
          <mxGeometry x="200" y="480" width="600" height="80" as="geometry" />
        </mxCell>
        <mxCell id="A1HN-KzVpsZoMAgiLz0k-3" value="&lt;font style=&quot;font-size: 16px&quot;&gt;Database Layer&lt;/font&gt;" style="text;html=1;resizable=0;autosize=1;align=center;verticalAlign=middle;points=[];fillColor=none;strokeColor=none;rounded=0;fontSize=36;" vertex="1" parent="1">
          <mxGeometry x="40" y="480" width="130" height="60" as="geometry" />
        </mxCell>
        <mxCell id="A1HN-KzVpsZoMAgiLz0k-4" value="&lt;font style=&quot;font-size: 16px&quot;&gt;Persistence Layer&lt;br&gt;&lt;/font&gt;" style="text;html=1;resizable=0;autosize=1;align=center;verticalAlign=middle;points=[];fillColor=none;strokeColor=none;rounded=0;fontSize=36;" vertex="1" parent="1">
          <mxGeometry x="35" y="360" width="140" height="60" as="geometry" />
        </mxCell>
        <mxCell id="A1HN-KzVpsZoMAgiLz0k-5" value="&lt;font style=&quot;font-size: 16px&quot;&gt;Logic Layer&lt;br&gt;&lt;/font&gt;" style="text;html=1;resizable=0;autosize=1;align=center;verticalAlign=middle;points=[];fillColor=none;strokeColor=none;rounded=0;fontSize=36;" vertex="1" parent="1">
          <mxGeometry x="55" y="240" width="100" height="60" as="geometry" />
        </mxCell>
        <mxCell id="A1HN-KzVpsZoMAgiLz0k-6" value="&lt;font style=&quot;font-size: 16px&quot;&gt;Communication Layer&lt;br&gt;&lt;/font&gt;" style="text;html=1;resizable=0;autosize=1;align=center;verticalAlign=middle;points=[];fillColor=none;strokeColor=none;rounded=0;fontSize=36;" vertex="1" parent="1">
          <mxGeometry x="20" y="120" width="170" height="60" as="geometry" />
        </mxCell>
        <mxCell id="A1HN-KzVpsZoMAgiLz0k-24" style="edgeStyle=orthogonalEdgeStyle;rounded=0;orthogonalLoop=1;jettySize=auto;html=1;exitX=1;exitY=0;exitDx=0;exitDy=39.375;exitPerimeter=0;entryX=0.75;entryY=1;entryDx=0;entryDy=0;dashed=1;fontSize=16;endArrow=classic;endFill=1;" edge="1" parent="1" source="A1HN-KzVpsZoMAgiLz0k-8" target="A1HN-KzVpsZoMAgiLz0k-10">
          <mxGeometry relative="1" as="geometry" />
        </mxCell>
        <mxCell id="A1HN-KzVpsZoMAgiLz0k-8" value="&lt;div&gt;Database&lt;/div&gt;" style="shape=cylinder3;whiteSpace=wrap;html=1;boundedLbl=1;backgroundOutline=1;size=15;fontSize=16;" vertex="1" parent="1">
          <mxGeometry x="465" y="490" width="70" height="62.5" as="geometry" />
        </mxCell>
        <mxCell id="A1HN-KzVpsZoMAgiLz0k-23" style="edgeStyle=orthogonalEdgeStyle;rounded=0;orthogonalLoop=1;jettySize=auto;html=1;exitX=0.25;exitY=1;exitDx=0;exitDy=0;entryX=1;entryY=0;entryDx=0;entryDy=23.125;entryPerimeter=0;dashed=1;fontSize=16;endArrow=classic;endFill=1;" edge="1" parent="1" source="A1HN-KzVpsZoMAgiLz0k-10" target="A1HN-KzVpsZoMAgiLz0k-8">
          <mxGeometry relative="1" as="geometry" />
        </mxCell>
        <mxCell id="A1HN-KzVpsZoMAgiLz0k-28" style="edgeStyle=orthogonalEdgeStyle;rounded=0;orthogonalLoop=1;jettySize=auto;html=1;exitX=0.75;exitY=0;exitDx=0;exitDy=0;entryX=1;entryY=0.25;entryDx=0;entryDy=0;dashed=1;fontSize=16;endArrow=classic;endFill=1;" edge="1" parent="1" source="A1HN-KzVpsZoMAgiLz0k-10" target="A1HN-KzVpsZoMAgiLz0k-16">
          <mxGeometry relative="1" as="geometry" />
        </mxCell>
        <mxCell id="A1HN-KzVpsZoMAgiLz0k-10" value="&lt;div&gt;Berechtigungen&lt;/div&gt;&lt;div&gt;dao&lt;br&gt;&lt;/div&gt;" style="rounded=1;whiteSpace=wrap;html=1;fontSize=16;" vertex="1" parent="1">
          <mxGeometry x="560" y="370" width="120" height="60" as="geometry" />
        </mxCell>
        <mxCell id="A1HN-KzVpsZoMAgiLz0k-25" style="edgeStyle=orthogonalEdgeStyle;rounded=0;orthogonalLoop=1;jettySize=auto;html=1;exitX=0.25;exitY=0;exitDx=0;exitDy=0;entryX=0;entryY=0.25;entryDx=0;entryDy=0;dashed=1;fontSize=16;endArrow=classic;endFill=1;" edge="1" parent="1" source="A1HN-KzVpsZoMAgiLz0k-11" target="A1HN-KzVpsZoMAgiLz0k-16">
          <mxGeometry relative="1" as="geometry" />
        </mxCell>
        <mxCell id="A1HN-KzVpsZoMAgiLz0k-11" value="&lt;div&gt;Benutzer&lt;/div&gt;&lt;div&gt;dao&lt;/div&gt;" style="rounded=1;whiteSpace=wrap;html=1;fontSize=16;" vertex="1" parent="1">
          <mxGeometry x="320" y="370" width="120" height="60" as="geometry" />
        </mxCell>
        <mxCell id="A1HN-KzVpsZoMAgiLz0k-14" value="" style="endArrow=classic;dashed=1;html=1;rounded=0;fontSize=16;entryX=0;entryY=0;entryDx=0;entryDy=23.125;entryPerimeter=0;exitX=0.75;exitY=1;exitDx=0;exitDy=0;endFill=1;" edge="1" parent="1" source="A1HN-KzVpsZoMAgiLz0k-11" target="A1HN-KzVpsZoMAgiLz0k-8">
          <mxGeometry width="50" height="50" relative="1" as="geometry">
            <mxPoint x="350" y="360" as="sourcePoint" />
            <mxPoint x="400" y="310" as="targetPoint" />
            <Array as="points">
              <mxPoint x="410" y="513" />
            </Array>
          </mxGeometry>
        </mxCell>
        <mxCell id="A1HN-KzVpsZoMAgiLz0k-15" value="" style="endArrow=classic;dashed=1;html=1;rounded=0;fontSize=16;endFill=1;entryX=0.25;entryY=1;entryDx=0;entryDy=0;" edge="1" parent="1" target="A1HN-KzVpsZoMAgiLz0k-11">
          <mxGeometry width="50" height="50" relative="1" as="geometry">
            <mxPoint x="460" y="533" as="sourcePoint" />
            <mxPoint x="414" y="533.125" as="targetPoint" />
            <Array as="points">
              <mxPoint x="350" y="533" />
            </Array>
          </mxGeometry>
        </mxCell>
        <mxCell id="A1HN-KzVpsZoMAgiLz0k-26" style="edgeStyle=orthogonalEdgeStyle;rounded=0;orthogonalLoop=1;jettySize=auto;html=1;exitX=0;exitY=0.75;exitDx=0;exitDy=0;entryX=0.75;entryY=0;entryDx=0;entryDy=0;dashed=1;fontSize=16;endArrow=classic;endFill=1;" edge="1" parent="1" source="A1HN-KzVpsZoMAgiLz0k-16" target="A1HN-KzVpsZoMAgiLz0k-11">
          <mxGeometry relative="1" as="geometry" />
        </mxCell>
        <mxCell id="A1HN-KzVpsZoMAgiLz0k-27" style="edgeStyle=orthogonalEdgeStyle;rounded=0;orthogonalLoop=1;jettySize=auto;html=1;exitX=1;exitY=0.75;exitDx=0;exitDy=0;entryX=0.25;entryY=0;entryDx=0;entryDy=0;dashed=1;fontSize=16;endArrow=classic;endFill=1;" edge="1" parent="1" source="A1HN-KzVpsZoMAgiLz0k-16" target="A1HN-KzVpsZoMAgiLz0k-10">
          <mxGeometry relative="1" as="geometry" />
        </mxCell>
        <mxCell id="A1HN-KzVpsZoMAgiLz0k-30" style="edgeStyle=orthogonalEdgeStyle;rounded=0;orthogonalLoop=1;jettySize=auto;html=1;exitX=0.75;exitY=0;exitDx=0;exitDy=0;entryX=0.125;entryY=1.017;entryDx=0;entryDy=0;entryPerimeter=0;dashed=1;fontSize=16;endArrow=classic;endFill=1;" edge="1" parent="1" source="A1HN-KzVpsZoMAgiLz0k-16" target="A1HN-KzVpsZoMAgiLz0k-18">
          <mxGeometry relative="1" as="geometry" />
        </mxCell>
        <mxCell id="A1HN-KzVpsZoMAgiLz0k-31" style="edgeStyle=orthogonalEdgeStyle;rounded=0;orthogonalLoop=1;jettySize=auto;html=1;exitX=0.25;exitY=0;exitDx=0;exitDy=0;entryX=0.75;entryY=1;entryDx=0;entryDy=0;dashed=1;fontSize=16;endArrow=classic;endFill=1;" edge="1" parent="1" source="A1HN-KzVpsZoMAgiLz0k-16" target="A1HN-KzVpsZoMAgiLz0k-17">
          <mxGeometry relative="1" as="geometry" />
        </mxCell>
        <mxCell id="A1HN-KzVpsZoMAgiLz0k-16" value="&lt;div&gt;Benutzer&lt;/div&gt;&lt;div&gt;Objekt&lt;br&gt;&lt;/div&gt;" style="rounded=1;whiteSpace=wrap;html=1;fontSize=16;" vertex="1" parent="1">
          <mxGeometry x="440" y="250" width="120" height="60" as="geometry" />
        </mxCell>
        <mxCell id="A1HN-KzVpsZoMAgiLz0k-32" style="edgeStyle=orthogonalEdgeStyle;rounded=0;orthogonalLoop=1;jettySize=auto;html=1;exitX=0.5;exitY=1;exitDx=0;exitDy=0;entryX=0.067;entryY=0.033;entryDx=0;entryDy=0;entryPerimeter=0;dashed=1;fontSize=16;endArrow=classic;endFill=1;" edge="1" parent="1" source="A1HN-KzVpsZoMAgiLz0k-17" target="A1HN-KzVpsZoMAgiLz0k-16">
          <mxGeometry relative="1" as="geometry">
            <Array as="points">
              <mxPoint x="380" y="230" />
              <mxPoint x="448" y="230" />
            </Array>
          </mxGeometry>
        </mxCell>
        <mxCell id="A1HN-KzVpsZoMAgiLz0k-17" value="&lt;div&gt;&lt;font style=&quot;font-size: 16px&quot;&gt;Authentifizierung&lt;/font&gt;&lt;/div&gt;&lt;div&gt;&lt;font style=&quot;font-size: 16px&quot;&gt;API&lt;br&gt;&lt;/font&gt;&lt;/div&gt;" style="rounded=1;whiteSpace=wrap;html=1;fontSize=16;" vertex="1" parent="1">
          <mxGeometry x="320" y="130" width="120" height="60" as="geometry" />
        </mxCell>
        <mxCell id="A1HN-KzVpsZoMAgiLz0k-29" style="edgeStyle=orthogonalEdgeStyle;rounded=0;orthogonalLoop=1;jettySize=auto;html=1;exitX=0.75;exitY=1;exitDx=0;exitDy=0;entryX=0.9;entryY=0.05;entryDx=0;entryDy=0;entryPerimeter=0;dashed=1;fontSize=16;endArrow=classic;endFill=1;" edge="1" parent="1" source="A1HN-KzVpsZoMAgiLz0k-18" target="A1HN-KzVpsZoMAgiLz0k-16">
          <mxGeometry relative="1" as="geometry">
            <Array as="points">
              <mxPoint x="650" y="230" />
              <mxPoint x="548" y="230" />
            </Array>
          </mxGeometry>
        </mxCell>
        <mxCell id="A1HN-KzVpsZoMAgiLz0k-18" value="&lt;div&gt;Benutzer&lt;br&gt;&lt;/div&gt;&lt;div&gt;Managment&lt;/div&gt;&lt;div&gt;API&lt;br&gt;&lt;/div&gt;" style="rounded=1;whiteSpace=wrap;html=1;fontSize=16;" vertex="1" parent="1">
          <mxGeometry x="560" y="130" width="120" height="60" as="geometry" />
        </mxCell>
      </root>
    </mxGraphModel>
  </diagram>
</mxfile>
